<svg preserveAspectRatio="none" width="100%" height="100%" overflow="visible" style="display: block;" viewBox="0 0 5637.89 3590.11" fill="none" xmlns="http://www.w3.org/2000/svg">
<g id="Group">
<g id="Vector">
<path d="M3226.52 1689.61H1306.05V2852.56H3226.52V1689.61Z" fill="var(--fill-0, #EEF2CC)"/>
<path d="M3226.52 1689.61H1306.05V2852.56H3226.52V1689.61Z" fill="var(--fill-1, #DCDD88)" fill-opacity="0.74"/>
</g>
<path id="Vector_2" d="M1878.33 838.015C1819.12 838.58 1733.86 847.634 1705.45 916.67C1642.69 998.72 1704.26 1077.38 1722.02 1154.9C1758.14 1176.97 1742.15 1199.04 1746.89 1221.1C1769.39 1249.4 1759.32 1277.13 1766.43 1304.29C1808.46 1337.67 1789.52 1370.49 1833.33 1402.18C1849.31 1473.48 1881.88 1544.21 1913.26 1614.38C1945.82 1638.71 1941.67 1663.61 1970.69 1690.77C1960.62 1721.33 1972.46 1752.45 1961.8 1782.44C1958.25 1795.46 1926.87 1809.04 1917.99 1818.66C1907.93 1828.28 1916.22 1831.11 1899.05 1833.37C1838.07 1844.12 1758.14 1829.41 1690.64 1833.94C1632.62 1837.9 1551.51 1867.89 1508.29 1906.93C1397.58 1998.04 1415.93 2155.91 1436.06 2283.8C1524.28 2494.3 1744.52 2655 1957.66 2662.93C2191.52 2670.85 2425.98 2518.06 2497.61 2304.73C2518.93 2180.24 2504.72 2029.72 2608.33 1943.71C2695.37 1876.94 2801.34 1875.81 2928.63 1867.32C2965.34 1863.93 2994.93 1857.7 3059.47 1834.5C3109.21 1784.71 3125.19 1672.66 3066.57 1595.14C3054.14 1562.89 3037.57 1532.9 3044.09 1496.68C3023.36 1432.74 3071.9 1380.68 3128.75 1325.79C3182.03 1243.17 3158.94 1141.32 3187.35 1043.99C3165.45 949.49 3181.44 849.332 3112.76 772.374C3045.86 673.914 2900.21 639.396 2798.97 621.854C2692.4 609.406 2598.26 602.05 2523.07 620.723C2338.35 662.597 2184.42 821.039 1984.89 838.015C1968.91 839.712 1912.66 837.449 1878.33 838.015Z" stroke="var(--stroke-0, #C5C739)" stroke-width="2.4" stroke-linecap="round" stroke-linejoin="round" stroke-dasharray="6.8 6.8"/>
<path id="Vector_3" d="M2991.38 1691.34C3006.19 1668.14 2992.57 1643.24 2984.28 1621.74C2975.4 1600.23 2956.45 1580.99 2947.57 1562.89C2937.51 1556.66 2934.55 1551 2925.67 1547.04C2915.6 1542.52 2901.98 1541.95 2892.51 1541.95C2877.72 1541.95 2861.13 1545.91 2833.31 1552.7C2822.06 1559.49 2805.48 1569.11 2783.58 1577.03C2741.54 1595.14 2705.42 1605.89 2663.39 1615.51C2633.19 1622.87 2599.45 1629.66 2571.03 1643.24C2533.14 1656.25 2510.05 1676.06 2495.84 1704.35C2479.26 1732.08 2473.34 1768.86 2497.02 1795.46C2498.21 1806.77 2514.19 1815.83 2521.29 1823.75C2541.43 1832.24 2550.9 1840.16 2562.14 1845.25C2601.23 1858.83 2647.99 1852.04 2685.89 1840.16C2724.96 1827.71 2754.56 1810.17 2793.05 1799.42C2817.91 1792.06 2852.84 1788.67 2876.53 1785.84C2912.05 1781.31 2954.09 1775.65 2977.77 1747.36C2973.03 1746.23 2996.71 1691.34 2991.38 1691.34Z" stroke="var(--stroke-0, #C5C739)" stroke-width="2.4"/>
<path id="Vector_4" d="M2111 1098.88C2113.37 1060.97 2101.53 1021.35 2073.11 991.93C2009.76 928.553 1854.64 897.996 1796.62 981.744C1792.48 1012.87 1778.86 1050.78 1787.74 1086.43C1798.99 1122.08 1804.91 1156.03 1818.53 1189.42C1837.47 1236.38 1854.64 1281.09 1891.35 1324.66C1897.27 1346.73 1920.96 1368.8 1932.8 1390.3C1944.64 1410.67 1948.19 1437.83 1973.06 1454.81C1999.11 1487.06 2024.56 1519.32 2031.08 1556.1C2040.55 1595.71 2035.22 1638.15 2055.35 1678.32C2061.86 1720.2 2083.18 1758.68 2106.86 1797.72C2138.24 1890.52 2164.29 1994.64 2137.65 2092.54C2112.78 2191 2041.73 2281.53 1951.74 2314.92C1917.99 2323.97 1894.9 2329.07 1866.49 2320.58C1839.84 2312.66 1805.5 2288.89 1812.02 2261.73C1810.24 2234 1836.29 2211.93 1857.01 2191C1890.76 2157.61 1906.15 2120.26 1917.4 2076.69C1939.31 2033.69 1926.28 1984.46 1890.76 1950.5C1869.45 1917.12 1814.38 1903.54 1765.84 1908.06C1741.56 1910.89 1702.49 1922.21 1679.99 1940.88C1620.78 1985.59 1584.08 2067.64 1592.37 2145.16C1585.85 2222.68 1615.45 2296.25 1667.55 2361.89C1693.61 2412.25 1744.52 2460.91 1800.18 2485.25C1886.02 2523.72 1997.92 2489.77 2081.99 2449.03C2153.63 2418.47 2212.25 2383.96 2274.41 2333.59C2352.56 2249.28 2389.86 2127.62 2392.82 2009.35C2394.6 1891.09 2353.75 1774.52 2322.37 1663.61C2270.27 1520.45 2192.12 1382.94 2154.82 1234.69C2141.2 1189.98 2130.54 1144.71 2111 1098.88Z" stroke="var(--stroke-0, #C5C739)" stroke-width="2.4"/>
<path id="Vector_5" d="M1749.85 776.902C1729.72 780.863 1725.57 785.955 1695.38 797.838C1693.01 815.379 1672.29 845.936 1661.04 875.928C1628.48 1063.79 1726.76 1263.54 1673.47 1447.45C1623.15 1605.33 1437.24 1693.04 1338.37 1830.54C1272.65 1955.03 1248.38 2116.87 1288.64 2261.16C1318.83 2405.46 1415.93 2532.78 1555.06 2636.33C1685.31 2761.39 1829.78 2855.89 2042.32 2879.65C2208.1 2902.86 2418.28 2848.53 2536.69 2716.12C2733.84 2523.72 2751.61 2206.84 2972.45 2041.61C3020.4 2002.56 3067.76 1974.84 3104.47 1938.62C3181.44 1901.84 3220.51 1853.17 3211.04 1792.63C3247.75 1719.63 3199.2 1648.33 3176.7 1575.34C3156.57 1442.36 3230.58 1308.25 3261.36 1180.93C3296.89 1053.61 3363.2 913.274 3304.58 785.389C3247.75 615.065 3030.47 525.658 2861.72 502.458C2571.62 463.976 2241.25 560.176 2019.82 738.989C1987.26 765.018 1945.23 759.36 1922.73 760.492C1883.06 761.623 1818.53 767.281 1749.85 776.902Z" stroke="var(--stroke-0, #C5C739)" stroke-width="2.4"/>
<path id="Vector_6" d="M1529.01 864.611C1496.45 978.349 1491.71 1103.97 1504.15 1225.07C1533.75 1345.59 1554.47 1473.48 1476.91 1582.13C1423.63 1683.42 1333.64 1753.02 1228.25 1840.73C1096.22 2030.86 1030.5 2314.92 1151.28 2533.91C1207.53 2634.07 1314.1 2718.95 1362.05 2802.13C1468.62 2890.4 1533.75 2980.38 1646.83 3031.3C1787.15 3076 1893.72 3086.76 1971.87 3096.38C2087.32 3105.99 2189.75 3115.05 2301.64 3088.46C2369.14 3066.96 2470.38 3022.82 2543.79 2970.75C2674.04 2863.24 2753.97 2720.64 2802.53 2561.64C2861.72 2438.28 2870.61 2300.77 3003.83 2201.75C3103.88 2055.19 3382.14 2021.8 3429.5 1841.86C3463.26 1769.43 3450.83 1686.81 3428.91 1610.98C3428.33 1512.52 3374.45 1419.16 3350.77 1317.87C3359.65 1187.15 3375.03 1055.31 3408.79 925.724C3407.01 795.575 3415.29 652.978 3366.15 539.239C3327.67 442.472 3189.73 381.368 3057.11 355.328C2987.83 329.3 2853.44 333.26 2733.85 341.756C2635.56 349.112 2517.74 359.288 2417.1 391.544C2280.33 434.552 2180.27 514.34 2015.68 583.376C1959.44 616.196 1911.48 657.504 1861.75 673.914C1801.95 689.192 1735.05 672.217 1673.47 705.602C1597.1 741.252 1553.29 799.536 1529.01 864.611Z" stroke="var(--stroke-0, #C5C739)" stroke-width="2.4" stroke-linecap="round" stroke-linejoin="round" stroke-dasharray="6.8 6.8"/>
<path id="Vector_7" d="M2349.01 171.428C2116.92 254.612 1957.66 392.684 1753.4 495.101C1609.53 547.16 1511.25 590.732 1437.24 652.977C1298.7 737.291 1198.65 857.255 1145.95 997.022C1073.72 1139.62 1057.74 1296.93 1044.12 1446.32C949.984 1702.66 797.233 1935.23 785.985 2196.09C685.927 2563.9 911.501 2949.82 1206.94 3171.63C1527.24 3392.89 1949.37 3454.57 2341.31 3365.17C2468.6 3324.42 2646.81 3252.56 2764.04 3134.85C3045.85 2908.51 3067.17 2553.15 3285.05 2300.21C3417.67 2135.54 3631.4 2007.66 3733.82 1802.81C3776.45 1609.85 3645.01 1411.23 3656.27 1212.05C3612.45 1062.66 3708.37 916.104 3736.19 768.414C3758.1 620.723 3720.8 458.888 3647.97 332.696C3589.37 232.544 3451.41 168.596 3384.51 135.776C3257.22 101.828 3126.37 99.5602 2990.79 94.4722C2825.01 89.3722 2703.65 78.0563 2566.88 103.52C2464.46 118.232 2396.96 140.864 2349.01 171.428Z" stroke="var(--stroke-0, #C5C739)" stroke-width="2.4"/>
<path id="Vector_8" d="M1210.49 3429.1C1869.45 3734.11 2651.55 3591.51 3187.35 3095.25C3435.43 2880.22 3595.28 2600.12 3839.81 2478.45C4222.27 2318.31 4697.69 2488.07 5029.23 2327.94C5304.54 2237.4 5415.26 2049.53 5455.52 1843.56C5586.36 1637.58 5586.96 1413.5 5607.67 1192.81C5649.12 1033.8 5604.72 875.362 5636.69 716.354C5618.33 638.264 5563.86 558.477 5563.27 487.184C5506.44 405.692 5401.05 343.448 5385.66 298.184C4997.27 97.8683 4561.51 196.892 4212.79 183.872C3881.84 175.388 3684.68 115.976 3391.62 73.5323C2853.44 -14.7397 2292.17 -33.9758 1691.83 82.5922C1145.95 199.148 713.755 459.452 302.278 864.044C137.687 1058.7 13.3538 1294.1 10.3898 1548.17C-44.6662 1827.15 160.185 2090.27 291.621 2334.72C269.715 2458.08 397.006 2580.31 469.237 2701.97C520.153 2762.52 553.901 2823.63 574.031 2883.61C565.741 2937.37 646.853 2980.94 716.716 3034.7C657.51 3053.94 761.119 3074.31 709.61 3093.55C756.383 3180.13 859.4 3207.28 925.71 3259.92C1029.32 3322.16 1169.04 3380.44 1210.49 3429.1Z" stroke="var(--stroke-0, #C5C739)" stroke-width="2.4" stroke-linecap="round" stroke-linejoin="round" stroke-dasharray="6.8 6.8"/>
<path id="Vector_9" d="M914.461 614.498C662.838 780.296 441.411 998.154 312.935 1260.72C278.596 1301.46 258.466 1344.46 259.057 1389.73C237.151 1501.21 324.775 1605.89 357.339 1707.75C431.345 1863.93 492.919 2034.82 485.814 2207.97C561.005 2205.71 607.186 2168.36 620.211 2124.79C635.604 2080.65 636.789 2030.86 662.247 1982.19C671.719 1754.15 700.138 1519.32 803.747 1312.77C848.152 1210.35 913.277 1117.55 975.443 1012.3C996.165 923.46 1012.15 826.132 1063.66 746.911C1118.72 683.534 1190.95 637.133 1260.81 594.127C1337.78 541.502 1416.52 492.838 1488.75 441.344C1568.09 397.208 1669.33 342.32 1709 275.54C1654.53 228.584 1386.92 367.22 1315.87 400.04C1177.33 460.58 1042.35 531.317 914.461 614.498Z" stroke="var(--stroke-0, #C5C739)" stroke-width="2.4"/>
</g>
</svg>
