<svg preserveAspectRatio="none" width="100%" height="100%" overflow="visible" style="display: block;" viewBox="0 0 3814.38 2428.93" fill="none" xmlns="http://www.w3.org/2000/svg">
<g id="Group">
<g id="Vector">
<path d="M2182.94 1143.13H883.627V1929.93H2182.94V1143.13Z" fill="var(--fill-0, #EEF2CC)"/>
<path d="M2182.94 1143.13H883.627V1929.93H2182.94V1143.13Z" fill="var(--fill-1, #DCDD88)" fill-opacity="0.74"/>
</g>
<path id="Vector_2" d="M1270.8 566.97C1230.75 567.352 1173.07 573.478 1153.84 620.185C1111.38 675.697 1153.04 728.912 1165.06 781.361C1189.49 796.292 1178.68 811.223 1181.88 826.153C1197.1 845.296 1190.29 864.055 1195.1 882.432C1223.54 905.019 1210.72 927.224 1240.36 948.663C1251.18 996.901 1273.21 1044.76 1294.44 1092.23C1316.47 1108.69 1313.66 1125.54 1333.29 1143.91C1326.48 1164.59 1334.49 1185.64 1327.28 1205.93C1324.88 1214.74 1303.65 1223.93 1297.64 1230.44C1290.83 1236.94 1296.44 1238.86 1284.82 1240.39C1243.57 1247.66 1189.49 1237.71 1143.83 1240.77C1104.57 1243.45 1049.69 1263.74 1020.45 1290.16C945.548 1351.8 957.966 1458.61 971.585 1545.13C1031.27 1687.55 1180.28 1796.28 1324.48 1801.64C1482.7 1807 1641.32 1703.63 1689.79 1559.3C1704.21 1475.07 1694.6 1373.24 1764.7 1315.04C1823.58 1269.87 1895.28 1269.1 1981.4 1263.36C2006.24 1261.06 2026.26 1256.85 2069.92 1241.15C2103.57 1207.46 2114.39 1131.66 2074.73 1079.21C2066.32 1057.39 2055.11 1037.1 2059.51 1012.6C2045.49 969.336 2078.33 934.115 2116.79 896.98C2152.84 841.085 2137.22 772.173 2156.44 706.324C2141.63 642.389 2152.44 574.626 2105.98 522.559C2060.72 455.945 1962.17 432.591 1893.68 420.723C1821.58 412.301 1757.89 407.324 1707.01 419.958C1582.04 448.288 1477.9 555.484 1342.91 566.97C1332.09 568.118 1294.04 566.586 1270.8 566.97Z" stroke="var(--stroke-0, #C5C739)" stroke-width="1.62375" stroke-linecap="round" stroke-linejoin="round" stroke-dasharray="4.6 4.6"/>
<path id="Vector_3" d="M2023.86 1144.3C2033.88 1128.6 2024.66 1111.75 2019.05 1097.21C2013.04 1082.66 2000.22 1069.64 1994.22 1057.39C1987.41 1053.18 1985.41 1049.35 1979.4 1046.67C1972.59 1043.61 1963.37 1043.23 1956.97 1043.23C1946.96 1043.23 1935.74 1045.91 1916.91 1050.5C1909.3 1055.09 1898.08 1061.6 1883.26 1066.96C1854.82 1079.21 1830.39 1086.49 1801.95 1092.99C1781.52 1097.97 1758.69 1102.57 1739.46 1111.75C1713.83 1120.56 1698.21 1133.96 1688.59 1153.1C1677.37 1171.86 1673.37 1196.75 1689.39 1214.74C1690.19 1222.4 1701.01 1228.52 1705.81 1233.88C1719.44 1239.62 1725.84 1244.98 1733.45 1248.43C1759.89 1257.62 1791.53 1253.02 1817.17 1244.98C1843.6 1236.56 1863.63 1224.69 1889.67 1217.42C1906.49 1212.44 1930.13 1210.14 1946.15 1208.23C1970.18 1205.17 1998.62 1201.34 2014.65 1182.2C2011.44 1181.43 2027.46 1144.3 2023.86 1144.3Z" stroke="var(--stroke-0, #C5C739)" stroke-width="1.62375"/>
<path id="Vector_4" d="M1428.23 743.46C1429.83 717.81 1421.82 691.01 1402.59 671.102C1359.73 628.224 1254.78 607.55 1215.53 664.211C1212.72 685.268 1203.51 710.918 1209.52 735.038C1217.13 759.157 1221.14 782.127 1230.35 804.715C1243.17 836.49 1254.78 866.735 1279.62 896.214C1283.62 911.145 1299.65 926.076 1307.66 940.624C1315.67 954.406 1318.07 972.782 1334.9 984.268C1352.52 1006.09 1369.74 1027.91 1374.15 1052.8C1380.56 1079.6 1376.95 1108.31 1390.57 1135.49C1394.98 1163.82 1409.4 1189.85 1425.42 1216.27C1446.65 1279.06 1464.28 1349.5 1446.25 1415.73C1429.43 1482.35 1381.36 1543.6 1320.47 1566.19C1297.64 1572.31 1282.02 1575.76 1262.79 1570.02C1244.77 1564.66 1221.54 1548.58 1225.94 1530.2C1224.74 1511.44 1242.37 1496.51 1256.39 1482.35C1279.22 1459.76 1289.63 1434.49 1297.24 1405.01C1312.06 1375.92 1303.25 1342.61 1279.22 1319.64C1264.8 1297.05 1227.54 1287.86 1194.7 1290.92C1178.28 1292.84 1151.84 1300.5 1136.62 1313.13C1096.56 1343.37 1071.73 1398.89 1077.33 1451.34C1072.93 1503.78 1092.96 1553.55 1128.21 1597.96C1145.83 1632.04 1180.28 1664.96 1217.93 1681.42C1276.01 1707.46 1351.72 1684.49 1408.6 1656.92C1457.07 1636.25 1496.72 1612.9 1538.78 1578.82C1591.65 1521.78 1616.89 1439.47 1618.89 1359.45C1620.09 1279.44 1592.46 1200.57 1571.23 1125.54C1535.98 1028.68 1483.1 935.647 1457.87 835.342C1448.65 805.097 1441.45 774.47 1428.23 743.46Z" stroke="var(--stroke-0, #C5C739)" stroke-width="1.62375"/>
<path id="Vector_5" d="M1183.88 525.622C1170.26 528.302 1167.46 531.748 1147.03 539.787C1145.43 551.655 1131.41 572.329 1123.8 592.62C1101.77 719.723 1168.26 854.867 1132.21 979.29C1098.16 1086.1 972.385 1145.44 905.492 1238.47C861.029 1322.7 844.606 1432.19 871.844 1529.82C892.273 1627.44 957.965 1713.58 1052.1 1783.64C1140.22 1868.25 1237.96 1932.19 1381.76 1948.26C1493.92 1963.96 1636.12 1927.21 1716.23 1837.62C1849.61 1707.46 1861.64 1493.06 2011.05 1381.28C2043.49 1354.86 2075.53 1336.1 2100.37 1311.6C2152.44 1286.71 2178.88 1253.79 2172.47 1212.82C2197.31 1163.44 2164.46 1115.2 2149.23 1065.81C2135.62 975.845 2185.69 885.111 2206.51 798.972C2230.55 712.832 2275.42 617.887 2235.76 531.365C2197.31 416.13 2050.3 355.64 1936.13 339.944C1739.86 313.909 1516.35 378.994 1366.54 499.972C1344.51 517.582 1316.07 513.754 1300.85 514.52C1274.01 515.286 1230.35 519.114 1183.88 525.622Z" stroke="var(--stroke-0, #C5C739)" stroke-width="1.62375"/>
<path id="Vector_6" d="M1034.47 584.963C1012.44 661.914 1009.24 746.905 1017.65 828.833C1037.68 910.379 1051.7 996.901 999.224 1070.41C963.173 1138.94 902.288 1186.03 830.988 1245.37C741.663 1374 697.2 1566.19 778.915 1714.35C816.968 1782.11 889.069 1839.54 921.515 1895.81C993.616 1955.54 1037.68 2016.41 1114.18 2050.87C1209.12 2081.11 1281.22 2088.38 1334.09 2094.89C1412.2 2101.4 1481.5 2107.53 1557.21 2089.54C1602.87 2074.99 1671.37 2045.13 1721.04 2009.9C1809.16 1937.16 1863.24 1840.69 1896.08 1733.11C1936.13 1649.65 1942.15 1556.62 2032.28 1489.62C2099.97 1390.46 2288.23 1367.88 2320.27 1246.13C2343.11 1197.13 2334.7 1141.23 2319.87 1089.93C2319.48 1023.32 2283.02 960.148 2267.01 891.62C2273.01 803.183 2283.42 713.981 2306.26 626.31C2305.06 538.256 2310.66 441.78 2277.41 364.829C2251.38 299.36 2158.05 258.019 2068.32 240.402C2021.45 222.792 1930.53 225.471 1849.62 231.22C1783.12 236.196 1703.41 243.081 1635.32 264.904C1542.79 294.002 1475.09 347.983 1363.73 394.691C1325.68 416.895 1293.24 444.843 1259.59 455.945C1219.13 466.282 1173.87 454.797 1132.21 477.384C1080.54 501.503 1050.9 540.936 1034.47 584.963Z" stroke="var(--stroke-0, #C5C739)" stroke-width="1.62375" stroke-linecap="round" stroke-linejoin="round" stroke-dasharray="4.6 4.6"/>
<path id="Vector_7" d="M1589.25 115.982C1432.23 172.261 1324.48 265.675 1186.29 334.967C1088.95 370.188 1022.46 399.667 972.386 441.78C878.654 498.823 810.959 579.986 775.309 674.548C726.441 771.025 715.626 877.455 706.413 978.525C642.723 1151.95 539.378 1309.3 531.768 1485.79C464.073 1734.64 616.687 1995.74 816.567 2145.81C1033.27 2295.5 1318.87 2337.23 1584.04 2276.75C1670.16 2249.18 1790.73 2200.56 1870.05 2120.92C2060.71 1967.79 2075.13 1727.36 2222.54 1556.23C2312.27 1444.83 2456.87 1358.3 2526.16 1219.72C2555 1089.17 2466.08 954.788 2473.69 820.029C2444.05 718.958 2508.94 619.802 2527.76 519.88C2542.59 419.958 2517.35 310.467 2468.08 225.09C2428.43 157.331 2335.1 114.066 2289.84 91.8612C2203.71 68.8932 2115.18 67.3587 2023.46 63.9164C1911.3 60.4659 1829.19 52.81 1736.66 70.0379C1667.36 79.9915 1621.7 95.3035 1589.25 115.982Z" stroke="var(--stroke-0, #C5C739)" stroke-width="1.62375"/>
<path id="Vector_8" d="M818.971 2320C1264.8 2526.36 1793.94 2429.88 2156.44 2094.13C2324.28 1948.65 2432.43 1759.14 2597.87 1676.83C2856.63 1568.48 3178.28 1683.34 3402.59 1574.99C3588.85 1513.74 3663.76 1386.63 3691 1247.28C3779.52 1107.93 3779.93 956.32 3793.94 807.012C3821.98 699.433 3791.94 592.237 3813.57 484.658C3801.15 431.826 3764.3 377.845 3763.9 329.611C3725.45 274.476 3654.15 232.364 3643.73 201.74C3380.96 66.214 3086.15 133.21 2850.22 124.401C2626.31 118.661 2492.92 78.4652 2294.64 49.7492C1930.53 -9.97232 1550.8 -22.9867 1144.63 55.8788C775.31 134.736 482.9 310.848 204.51 584.58C93.1538 716.278 9.03468 875.541 7.02935 1047.44C-30.2195 1236.18 108.375 1414.2 197.3 1579.59C182.479 1663.05 268.599 1745.74 317.468 1828.05C351.916 1869.02 374.749 1910.36 388.368 1950.94C382.759 1987.31 437.636 2016.79 484.903 2053.16C444.847 2066.18 514.945 2079.96 480.096 2092.98C511.74 2151.56 581.438 2169.93 626.301 2205.54C696.4 2247.65 790.932 2287.08 818.971 2320Z" stroke="var(--stroke-0, #C5C739)" stroke-width="1.62375" stroke-linecap="round" stroke-linejoin="round" stroke-dasharray="4.6 4.6"/>
<path id="Vector_9" d="M618.69 415.747C448.451 527.919 298.642 675.314 211.72 852.953C188.487 880.517 174.868 909.613 175.268 940.24C160.448 1015.66 219.731 1086.49 241.762 1155.4C291.832 1261.06 333.491 1376.68 328.684 1493.83C379.555 1492.3 410.799 1467.03 419.611 1437.55C430.026 1407.69 430.827 1374 448.051 1341.08C454.46 1186.79 473.687 1027.91 543.785 888.174C573.828 818.88 617.889 756.093 659.948 684.885C673.968 624.778 684.783 558.93 719.632 505.332C756.884 462.454 805.753 431.06 853.019 401.964C905.092 366.36 958.367 333.435 1007.24 298.597C1060.91 268.736 1129.41 231.601 1156.24 186.42C1119.39 154.652 938.338 248.448 890.271 270.652C796.54 311.611 705.212 359.469 618.69 415.747Z" stroke="var(--stroke-0, #C5C739)" stroke-width="1.62375"/>
</g>
</svg>
