<svg preserveAspectRatio="none" width="100%" height="100%" overflow="visible" style="display: block;" viewBox="0 0 65.6225 32" fill="none" xmlns="http://www.w3.org/2000/svg">
<g id="olly">
<path d="M12.1364 25.813C10.0252 26.0613 8.11422 25.7852 6.40338 24.9845C4.68989 24.1614 3.2783 22.9043 2.16859 21.2133C1.0787 19.4971 0.395059 17.4599 0.117677 15.1017C-0.170272 12.6536 0.0702258 10.4394 0.83917 8.45905C1.63057 6.47605 2.86389 4.86232 4.53911 3.61786C6.23679 2.37075 8.26474 1.6085 10.623 1.33112C12.7341 1.0828 14.659 1.3801 16.3976 2.22302C18.1362 3.06594 19.5531 4.36795 20.6482 6.12904C21.7659 7.88749 22.4687 9.99075 22.7566 12.4388C23.034 14.797 22.7743 16.9452 21.9777 18.8833C21.2008 20.7962 19.9622 22.365 18.2619 23.5897C16.5589 24.7919 14.5171 25.533 12.1364 25.813ZM11.5737 21.0292C12.9437 20.868 14.111 20.4347 15.0754 19.7293C16.0597 18.9987 16.7691 18.0614 17.2038 16.9173C17.6583 15.7481 17.8037 14.4673 17.6399 13.0748C17.4629 11.57 17.0712 10.2727 16.4648 9.18273C15.8783 8.06769 15.1213 7.24593 14.1939 6.71745C13.2889 6.18634 12.2862 5.9855 11.1857 6.11495C9.8381 6.27345 8.68474 6.72789 7.72558 7.47827C6.76642 8.22865 6.06356 9.22212 5.61699 10.4587C5.19024 11.6702 5.06536 13.0283 5.24235 14.533C5.40614 15.9255 5.77735 17.1456 6.35598 18.1933C6.95443 19.2158 7.70481 19.9814 8.60713 20.4901C9.50681 20.9763 10.4957 21.156 11.5737 21.0292Z" fill="var(--fill-0, #87807B)"/>
<path d="M42.5592 24.2547C41.0907 24.187 39.9238 23.5063 39.0585 22.2128C38.1933 20.9192 37.7696 19.2433 37.7876 17.185L38.0093 0.0196116L42.4848 0.157055L42.2985 16.1697C42.2377 17.4122 42.2548 18.329 42.3497 18.9201C42.468 19.4894 42.708 19.7796 43.0696 19.7907C43.3861 19.8004 43.6135 19.7691 43.9615 19.3902C44.0594 19.2836 44.2039 19.1813 44.338 18.9756C44.5132 18.7069 44.8653 18.5497 45.1357 18.7224L48.0992 20.6159C48.2651 20.7218 48.35 20.9225 48.2838 21.1078C47.9236 22.1163 47.0804 22.5734 46.1536 23.2452C45.1355 23.9831 43.9373 24.3197 42.5592 24.2547Z" fill="var(--fill-0, #87807B)"/>
<path d="M56.8062 31.9745C55.5201 31.8758 54.3856 31.4413 53.4025 30.671C52.5375 30.0148 51.9256 29.2117 51.5667 28.2618C51.4813 28.0355 51.6053 27.7893 51.8313 27.7029L54.7645 26.5824C55.0547 26.4715 55.3601 26.6864 55.5241 26.9503C55.6038 27.0784 55.7033 27.1821 55.8107 27.2896C56.0591 27.5379 56.5972 27.7526 56.9343 27.7904C57.9006 27.8989 58.6852 27.4976 59.288 26.5868C59.8909 25.6759 60.1906 24.4238 60.1873 22.8305C59.8668 23.6593 59.3279 24.3043 58.5708 24.7655C57.8161 25.2042 57.0018 25.3631 56.1279 25.2423C54.7371 25.0635 53.5276 24.5865 52.4996 23.8112C51.4715 23.0359 50.6834 22.0487 50.1353 20.8494C49.5897 19.6276 49.3539 18.2813 49.4279 16.8104L49.8127 7.29611L54.2624 7.79535L53.7028 16.1295C53.604 17.4155 53.8139 18.4859 54.3324 19.3405C54.8734 20.1977 55.6383 20.6817 56.6271 20.7926C57.6159 20.9036 58.4454 20.6098 59.1154 19.9113C59.8079 19.2153 60.2135 18.2368 60.3322 16.9757L61.1391 8.56691L65.6225 9.06994L64.0837 25.8277C63.8143 27.8228 63.0135 29.3828 61.6812 30.5076C60.349 31.6325 58.7239 32.1214 56.8062 31.9745Z" fill="var(--fill-0, #87807B)"/>
<path d="M31.0974 23.9988C29.6286 24.0598 28.4066 23.4838 27.4316 22.2709C26.4565 21.058 25.8879 19.4255 25.7257 17.3735L24.4453 0.254523L28.9156 0L30.1305 15.9675C30.1786 17.2106 30.2759 18.1224 30.4222 18.703C30.5898 19.2597 30.8542 19.5278 31.2154 19.5072C31.5315 19.4892 31.7554 19.4382 32.0689 19.0303C32.1571 18.9156 32.2921 18.801 32.4076 18.5844C32.5587 18.3013 32.8957 18.1139 33.1801 18.2624L36.2979 19.8893C36.4724 19.9804 36.5746 20.1728 36.5249 20.3633C36.2542 21.3994 35.4542 21.9285 34.5898 22.6787C33.6401 23.5029 32.4759 23.943 31.0974 23.9988Z" fill="var(--fill-0, #87807B)"/>
</g>
</svg>
