<svg preserveAspectRatio="none" width="100%" height="100%" overflow="visible" style="display: block;" viewBox="0 0 48 48" fill="none" xmlns="http://www.w3.org/2000/svg">
<g id="SVG">
<path id="Vector" d="M42.6364 8.24898C39.6134 8.24898 17.9554 8.22962 14.9325 8.26835C13.4404 8.28771 10.9923 8.04888 10.4627 9.80457C10.2624 10.463 10.2689 11.173 10.2883 11.8765C10.3787 15.5428 10.1849 31.0084 10.2818 34.6747C10.2818 34.9264 10.3335 35.7074 10.4175 35.9398C10.5208 36.198 10.8825 36.6756 11.0828 36.8176C11.7868 37.3146 12.4715 37.3598 13.2918 37.3856C15.8626 37.4566 37.0685 37.4889 39.6457 37.4889C40.9053 37.4889 42.2811 37.4308 43.5019 37.4566C44.3868 37.476 45.1942 37.2888 45.6722 36.6304C46.1761 35.9398 46.26 35.049 46.2536 34.126C46.2277 30.8018 46.189 14.7489 46.189 11.4376C46.1502 10.8309 46.1115 10.1983 45.866 9.66257C45.2718 8.4039 43.8443 8.25544 42.6364 8.25544V8.24898Z" fill="var(--fill-0, #E7DED7)"/>
<path id="Vector_2" d="M38.6364 4.24898C35.6134 4.24898 13.9554 4.22962 10.9325 4.26835C9.44041 4.28771 6.99234 4.04888 6.46268 5.80457C6.26244 6.46295 6.2689 7.17298 6.28827 7.87654C6.3787 11.5428 6.18493 27.0084 6.28182 30.6747C6.28182 30.9264 6.33349 31.7074 6.41746 31.9398C6.52081 32.198 6.88253 32.6756 7.08277 32.8176C7.78683 33.3146 8.47151 33.3598 9.29184 33.3856C11.8626 33.4566 33.0685 33.4889 35.6457 33.4889C36.9053 33.4889 38.2811 33.4308 39.5019 33.4566C40.3868 33.476 41.1942 33.2888 41.6722 32.6304C42.1761 31.9398 42.26 31.049 42.2536 30.126C42.2277 26.8018 42.189 10.7489 42.189 7.43762C42.1502 6.83087 42.1115 6.19831 41.866 5.66257C41.2718 4.4039 39.8443 4.25544 38.6364 4.25544V4.24898Z" stroke="var(--stroke-0, #200827)" stroke-width="2.5" stroke-linecap="round" stroke-linejoin="round"/>
<path id="Vector_3" d="M16.3571 33.4392C15.2138 36.9506 13.909 40.4168 12.4492 43.8055" stroke="var(--stroke-0, #200827)" stroke-width="2.5" stroke-linecap="square" stroke-linejoin="round"/>
<path id="Vector_4" d="M32.5059 33.4648C33.2035 34.6848 34.5535 39.2031 34.702 40.0099C34.9733 41.4687 35.5159 42.8629 36.0585 44.2442" stroke="var(--stroke-0, #200827)" stroke-width="2.5" stroke-linecap="square" stroke-linejoin="round"/>
<path id="Vector_5" d="M13.9883 40.1462C20.6995 40.0235 28.0372 40.017 34.742 40.2947" stroke="var(--stroke-0, #200827)" stroke-width="2.5" stroke-linecap="square" stroke-linejoin="round"/>
<path id="Vector_6" d="M27.1055 10.6715C25.7684 10.7038 24.8964 11.3363 24.4119 12.4078C23.9275 13.4793 24.244 14.88 25.2 15.5642C26.2205 16.2936 27.6739 16.1193 28.7526 15.4803C29.1337 15.2543 29.4889 14.9703 29.7086 14.5895C30.0251 14.0344 30.0057 13.3567 29.9023 12.7241C29.8442 12.382 29.7602 12.0205 29.5212 11.7623C29.0949 11.1685 28.21 10.6521 27.1119 10.665L27.1055 10.6715Z" stroke="var(--stroke-0, #200827)" stroke-width="2.5" stroke-linecap="round" stroke-linejoin="round"/>
<path id="Vector_7" d="M18.7926 12.396C21.021 15.2684 22.4033 18.7926 22.7198 22.4202C22.7909 23.2141 22.8103 24.0274 22.6036 24.7955C22.3969 25.5636 21.9383 26.293 21.2471 26.6868C20.711 26.9901 20.0715 27.0676 19.4514 27.0676C19.206 27.0676 18.9541 27.0547 18.728 26.9643C18.5278 26.8869 18.3469 26.7513 18.1983 26.5964C17.5782 25.9574 17.3974 24.9311 17.7591 24.1178C18.2565 23.014 19.5096 22.5106 20.6076 22.0006C21.1179 21.7683 21.6153 21.5101 22.1385 21.3164C22.6682 21.1228 23.2107 21.0002 23.7598 20.8775C26.1368 20.3547 28.5267 19.8964 30.9425 19.6382" stroke="var(--stroke-0, #200827)" stroke-width="2.5" stroke-linecap="square" stroke-linejoin="round"/>
</g>
</svg>
