<svg preserveAspectRatio="none" width="100%" height="100%" overflow="visible" style="display: block;" viewBox="0 0 15.8716 15.7496" fill="none" xmlns="http://www.w3.org/2000/svg">
<path id="Vector" d="M8.83913 14.9917L8.84859 14.9918L8.85825 14.9923H8.85981L8.86684 14.9926L8.89611 14.9938C8.92206 14.9949 8.96089 14.9963 9.01103 14.998C9.11123 15.0013 9.2564 15.0057 9.43474 15.0094C9.79201 15.017 10.2795 15.0222 10.8026 15.0129C11.3276 15.0036 11.8789 14.98 12.3665 14.9314C12.8724 14.8811 13.2448 14.8095 13.449 14.7301L13.4525 14.7287C13.6154 14.6663 13.8949 14.4588 14.1703 14.1062C14.4373 13.764 14.6295 13.3747 14.6925 13.04L14.6928 13.0381C14.8507 12.2118 14.9632 11.1594 15.0365 10.2983C15.0728 9.87095 15.0989 9.49671 15.1159 9.22959C15.1245 9.09602 15.1307 8.98949 15.1348 8.91661L15.1392 8.83476L15.1385 8.8132L15.1337 8.66441C15.1293 8.53515 15.1225 8.34822 15.1135 8.11827C15.0953 7.65827 15.0677 7.02734 15.03 6.34276C14.9532 4.95427 14.8371 3.40588 14.6824 2.58978C14.5304 1.78246 14.1101 1.30032 13.757 1.165L13.7536 1.16363C13.5425 1.08159 13.1445 1.00041 12.603 0.933683C12.0808 0.869293 11.4854 0.825 10.9178 0.794659C10.3517 0.764512 9.82167 0.748707 9.43279 0.740512C9.23845 0.736415 9.07991 0.734269 8.97035 0.733098C8.91552 0.732512 8.87298 0.732123 8.8444 0.732025L8.81211 0.73183L8.8042 0.731732H8.80313L8.79123 0.73183L8.74391 0.732122C8.70215 0.732415 8.6404 0.732903 8.56138 0.733683C8.40313 0.735244 8.17542 0.738074 7.89816 0.742854C7.34323 0.752415 6.59191 0.770073 5.8042 0.802269C5.01484 0.834561 4.19689 0.881098 3.50625 0.94783C2.7804 1.01798 2.29464 1.10256 2.10098 1.17798L2.09757 1.17924C1.99172 1.21983 1.75269 1.41583 1.49035 1.83612C1.24684 2.22627 1.06225 2.68461 0.991131 3.061C0.842058 3.86617 0.775619 4.985 0.748692 5.93124C0.735326 6.39856 0.731813 6.8132 0.731716 7.11076C0.731618 7.25944 0.732399 7.37866 0.733179 7.46032L0.734155 7.55339L0.734545 7.5769V7.57837L0.73474 7.58246L0.735813 7.61407L0.740399 7.7368C0.744594 7.84373 0.750838 7.99885 0.759423 8.19066C0.776594 8.57427 0.802838 9.10354 0.839325 9.68646C0.913179 10.8666 1.02645 12.219 1.18206 13.04C1.33415 13.8473 1.75445 14.3295 2.10752 14.4648L2.11103 14.4662C2.30869 14.543 2.79903 14.6317 3.52557 14.7094C4.21815 14.7834 5.03825 14.8397 5.82937 14.8819C6.61894 14.9239 7.37201 14.9514 7.9282 14.9684C8.20606 14.9768 8.43435 14.9827 8.59298 14.9864C8.6723 14.9882 8.73415 14.9896 8.77601 14.9905L8.82352 14.9914L8.83542 14.9916L8.83913 14.9917ZM8.83913 14.9917L8.82606 15.7232" stroke="var(--stroke-0, #200827)" stroke-width="1.46341"/>
</svg>
